<?xml version="1.0" encoding="UTF-8"?>
<!DOCTYPE svg PUBLIC "-//W3C//DTD SVG 1.1//EN" "http://www.w3.org/Graphics/SVG/1.1/DTD/svg11.dtd">
<!-- Creator: CorelDRAW X7 -->
<svg xmlns="http://www.w3.org/2000/svg" xml:space="preserve" width="173.705mm" height="26.703mm" version="1.1" style="shape-rendering:geometricPrecision; text-rendering:geometricPrecision; image-rendering:optimizeQuality; fill-rule:evenodd; clip-rule:evenodd"
viewBox="0 0 17371 2670"
 xmlns:xlink="http://www.w3.org/1999/xlink">
 <defs>
  <style type="text/css">
   <![CDATA[
    .fil2 {fill:#FEFEFE}
    .fil0 {fill:#00659B}
    .fil1 {fill:white}
   ]]>
  </style>
 </defs>
 <g id="Слой_x0020_1">
  <metadata id="CorelCorpID_0Corel-Layer"/>
  <g id="_493150136">
   <rect class="fil0" width="3170" height="2670"/>
   <g>
    <path class="fil0" d="M4338 2263c-107,0 -268,-33 -268,-166l0 -702c142,0 280,-21 415,19 85,25 111,50 165,95l36 43c28,39 48,75 59,123 36,143 2,370 -96,468 -19,18 -35,35 -57,50 -55,37 -132,62 -201,67 -18,2 -36,3 -53,3zm-96 -986l-172 0 0 -753c154,0 382,-32 488,76 22,21 38,36 53,62 42,73 48,137 48,226 0,94 -25,200 -85,267 -9,10 -14,18 -24,26 -10,8 -16,15 -27,22 -11,7 -19,14 -30,20 -71,41 -162,54 -251,54zm-727 -770c26,6 58,8 100,18 57,14 123,39 145,95 11,28 14,68 14,107l0 1344c0,90 -11,134 -72,165 -34,17 -129,33 -173,35 -29,2 -22,-15 -22,102l952 0c93,0 169,-20 242,-40 34,-10 70,-24 101,-40 34,-17 60,-33 91,-53 112,-75 205,-216 209,-357 1,-46 2,-89 -5,-131 -14,-85 -38,-130 -86,-195 -6,-9 -8,-12 -16,-19 -7,-8 -9,-12 -17,-20l-38 -35c-78,-66 -189,-112 -289,-136 -29,-8 -87,-22 -121,-22l0 -12c106,-24 205,-61 291,-126 87,-65 145,-147 166,-256 6,-27 12,-82 8,-109 -2,-18 -2,-37 -4,-55 -20,-169 -175,-289 -333,-329 -71,-18 -136,-29 -213,-29l-922 0c-13,0 -8,22 -8,45 0,18 0,36 0,53z"/>
    <path class="fil1" d="M1286 893c0,156 40,279 143,382l32 29c72,61 157,104 245,139l320 125c30,12 63,25 89,41 25,16 51,33 72,55 21,21 40,44 57,69 69,104 80,256 35,370 -9,22 -17,39 -30,55l-40 45c-27,28 -67,48 -106,63 -47,17 -123,22 -180,22 -151,0 -260,-61 -356,-157 -109,-108 -175,-261 -215,-410 -9,-31 -5,-22 -120,-22 0,61 3,113 3,172 0,18 3,22 3,40 0,15 0,30 0,45 0,54 5,114 5,169l3 85c2,27 -2,60 1,87 11,97 -34,79 109,79 9,0 14,-13 19,-21l46 -78c11,3 15,7 24,12 10,5 16,9 24,13 8,5 15,8 25,12 82,33 160,67 249,83 52,9 105,15 159,16l25 0c93,-2 186,-17 270,-50 82,-33 126,-67 191,-117 54,-42 104,-110 135,-172 84,-167 82,-407 -29,-562 -16,-21 -41,-54 -61,-69 -12,-10 -21,-19 -33,-29 -106,-87 -257,-143 -384,-194 -98,-38 -200,-72 -291,-126 -8,-5 -10,-7 -18,-13 -13,-9 -26,-17 -37,-28 -23,-20 -45,-42 -63,-67 -59,-82 -82,-236 -31,-335 7,-14 19,-31 29,-44l36 -37c69,-61 141,-82 237,-82 39,0 88,6 119,16 97,29 177,93 232,176 67,101 108,215 141,332 5,17 11,51 20,51 125,0 110,11 108,-31 -3,-42 -1,-85 0,-127 0,-18 -3,-23 -3,-40l0 -129c0,-17 -3,-22 -3,-40 0,-41 2,-85 0,-127l-3 -124c0,-49 12,-36 -110,-36 -8,0 -6,2 -9,7l-22 37c-10,17 -19,32 -28,49l-87 -48c-8,-4 -15,-8 -23,-11 -8,-4 -15,-7 -23,-11 -118,-57 -200,-68 -335,-68 -119,0 -223,41 -314,95 -27,16 -55,37 -78,59 -47,45 -90,95 -120,154 -30,60 -54,133 -54,221z"/>
   </g>
   <g>
    <g>
     <path class="fil2" d="M10743 1435c-52,0 -143,-18 -143,-84l0 -382c98,0 214,-19 295,46 42,33 76,91 76,146 0,57 1,86 -17,141 -31,91 -119,133 -211,133zm-46 -530l-97 0 0 -405c85,0 205,-17 267,42 35,34 51,87 51,141 0,148 -74,222 -221,222zm-400 -420c0,11 10,8 20,9 21,2 55,12 71,20 27,14 49,26 49,70l0 776c0,62 -53,71 -97,77 -59,9 -49,-9 -49,54 0,7 2,9 9,9l507 0c52,0 97,-11 135,-23 42,-14 47,-15 83,-37 9,-6 17,-10 25,-16 107,-79 142,-221 80,-337 -32,-62 -100,-104 -163,-128 -27,-11 -89,-28 -119,-28l0 -6c12,-1 38,-8 50,-12 71,-23 145,-70 181,-139 29,-58 32,-156 -3,-211 -17,-28 -38,-50 -65,-69 -50,-34 -123,-59 -206,-59l-508 0 0 50z"/>
     <path class="fil2" d="M5997 689c0,52 3,100 24,145 11,24 39,63 59,78 24,18 27,25 58,44 8,5 14,7 23,12 45,25 56,25 95,42 37,16 81,30 122,47 47,19 70,23 109,63 13,12 24,23 32,38 30,59 44,123 18,188 -33,84 -104,107 -190,107 -77,0 -124,-23 -175,-65 -22,-18 -23,-21 -40,-41 -43,-49 -77,-124 -95,-187 -10,-33 8,-28 -69,-28 0,65 2,120 2,184 1,18 4,24 4,44l2 140c65,0 59,13 94,-53 11,3 18,8 27,14 9,5 19,8 28,12 86,38 129,50 230,50 122,0 256,-70 310,-180 33,-64 34,-91 34,-164 0,-56 -22,-113 -52,-152 -10,-13 -22,-23 -34,-35 -67,-68 -219,-110 -298,-145 -8,-4 -16,-9 -24,-12 -48,-21 -89,-41 -120,-86 -33,-48 -43,-126 -15,-181 27,-53 88,-86 153,-86 49,0 91,9 123,31 8,5 14,8 21,14 5,4 6,5 10,8 16,13 33,32 44,49 19,29 37,60 50,96l35 111 64 0c0,-70 -3,-137 -3,-210 0,-21 -3,-32 -3,-49 0,-18 0,-35 0,-53 0,-9 0,-18 0,-26 0,-23 2,-18 -64,-18l-29 50c-95,-50 -130,-73 -254,-73 -68,0 -116,23 -168,51 -41,22 -84,70 -107,111 -15,27 -31,75 -31,115z"/>
     <path class="fil2" d="M12443 1771c-278,0 -254,-199 -160,-254 41,-24 85,-31 137,-29 15,0 16,3 32,3l131 6c58,2 99,38 99,105 0,68 -28,106 -71,132 -25,15 -43,21 -75,28 -28,6 -60,9 -93,9zm9 58l-16 0c-94,0 -177,-1 -257,-42 -110,-55 -133,-203 -27,-275 61,-42 100,-34 145,-44 -2,-10 0,-5 -8,-10 0,0 -11,-4 -13,-5 -19,-7 -51,-21 -65,-33 -100,-85 -15,-201 69,-221l0 -11c-13,-3 -44,-24 -56,-32 -17,-12 -31,-27 -46,-42 -37,-38 -50,-88 -50,-142 0,-108 80,-187 169,-216 130,-44 231,9 257,9l248 0 0 73 -172 0c2,9 12,19 18,28 7,9 13,20 16,30 22,59 28,124 -1,182 -23,44 -42,61 -80,90 -114,86 -223,29 -277,63 -50,33 -41,91 13,109 25,9 104,14 139,14 20,0 30,2 46,3l141 10c61,14 113,55 141,110 22,44 22,60 22,107 0,58 -34,121 -73,155 -66,59 -180,90 -283,90zm-175 -828c0,-56 -1,-108 30,-154 43,-67 142,-62 182,-17l24 34c17,34 25,82 26,120 1,27 -12,92 -27,118 -17,27 -33,43 -61,56 -29,13 -69,10 -94,-3 -44,-22 -80,-89 -80,-154z"/>
     <path class="fil2" d="M14592 354c0,69 -9,48 54,57 21,3 38,5 51,15 24,18 41,55 41,97l0 845c0,109 -111,60 -111,88 0,30 -4,44 9,44l349 0c13,0 9,-14 9,-44 0,-16 -27,-3 -73,-23 -20,-9 -41,-27 -41,-56l0 -434c0,-17 49,-63 72,-77 122,-73 243,-27 243,120l0 391c0,57 -38,64 -75,67 -49,4 -38,-3 -38,56l364 0 0 -53c-122,0 -108,-75 -108,-146 0,-68 3,-322 -3,-378 -4,-35 -17,-73 -32,-97 -73,-113 -226,-104 -319,-48 -69,42 -80,70 -104,86 0,-138 0,-276 0,-414 0,-21 5,-86 -2,-100 -3,-6 -9,-9 -16,-11l-25 0c-9,1 -17,3 -24,3l-172 9c-20,0 -28,3 -49,3z"/>
     <path class="fil2" d="M7501 354l0 52c36,0 83,4 108,23 8,6 23,27 27,38 7,15 11,35 11,56l0 840c0,118 -111,64 -111,93l0 44 359 0c13,0 9,-14 9,-44 0,-16 -28,-3 -73,-23 -9,-4 -23,-12 -28,-19 -6,-8 -13,-25 -13,-37l0 -186c0,-10 20,-25 28,-31 12,-9 18,-24 33,-28l100 137c41,54 87,127 129,185 11,15 26,46 36,46l213 0c13,0 9,-14 9,-44 0,-12 -11,-8 -38,-12 -69,-12 -87,-57 -132,-115l-215 -287c10,-15 23,-22 36,-34 12,-12 23,-23 35,-35 75,-76 128,-123 232,-156 29,-9 24,1 24,-58l-330 0 0 50c114,26 127,25 40,115 -7,8 -8,11 -14,18l-118 118c-17,17 -52,56 -68,66l0 -746c0,-26 -1,-38 -19,-41l-22 0c-5,1 -11,1 -18,2l-230 13z"/>
     <path class="fil2" d="M16548 768l0 49c35,3 68,8 93,33 28,28 24,49 24,101 0,85 0,170 0,254 0,115 -1,223 90,286 42,29 87,29 137,29 54,0 95,-23 129,-43 10,-6 17,-10 27,-17 7,-5 5,-4 11,-9 6,-5 7,-6 13,-11 16,-13 28,-31 45,-42 0,16 -3,81 1,91 5,13 16,15 32,12l220 -16 0 -50c-38,0 -75,-7 -97,-39 -20,-29 -13,-75 -13,-124l0 -478c0,-58 -16,-43 -56,-41l-227 15 0 49c12,1 12,3 26,3 24,1 59,-1 79,17 26,23 35,44 35,91l0 391c0,16 -24,42 -33,52l-49 38c-88,51 -194,37 -219,-72 -12,-50 -3,-470 -5,-561 -1,-42 -41,-21 -100,-20 -54,2 -110,7 -163,12z"/>
     <path class="fil2" d="M13050 1333c0,-57 -2,-71 33,-118 40,-52 134,-89 196,-107 13,-4 36,-13 47,-14 0,30 0,61 0,91l-2 131c0,24 3,28 -6,41 -12,15 -31,32 -47,43 -94,69 -221,39 -221,-67zm-120 -422c0,39 24,87 58,87l32 0c35,0 68,-26 73,-56 6,-37 -11,-78 -11,-110 41,-28 62,-32 116,-32 90,0 128,86 128,172 0,76 18,51 -127,105 -22,8 -46,15 -68,23 -24,8 -44,16 -69,25 -41,13 -90,39 -115,68 -5,5 -5,6 -9,11 -5,6 -7,7 -11,13 -46,64 -46,189 20,251 75,72 208,64 288,16 19,-12 33,-21 50,-35 8,-6 13,-13 20,-20l7 -6c10,-10 5,-11 17,-14 23,95 80,105 158,105 39,0 73,-19 105,-26l0 -50c-26,0 -70,0 -87,-9 -18,-10 -39,-33 -39,-61 0,-73 -2,-153 3,-221 3,-33 1,-192 -3,-224 -13,-95 -76,-161 -163,-176 -105,-17 -184,-10 -277,38 -17,9 -50,36 -62,49 -14,16 -34,49 -34,77z"/>
     <path class="fil2" d="M11641 1462c-155,0 -204,-183 -204,-309 0,-103 -1,-164 47,-257 23,-45 78,-96 146,-96 67,0 106,12 148,67 30,39 44,84 55,135 22,114 17,253 -32,351 -8,15 -17,27 -26,41 -27,40 -79,68 -134,68zm-364 -330c0,55 11,114 27,154 49,133 170,234 314,234 87,0 177,-14 243,-72 18,-16 32,-27 47,-46 36,-47 45,-62 67,-119 44,-115 37,-273 -28,-381 -33,-54 -89,-107 -149,-131 -23,-9 -43,-18 -69,-23 -88,-18 -162,-10 -242,23 -20,8 -42,21 -59,34l-38 32c-6,6 -6,8 -12,15 -69,75 -101,173 -101,280z"/>
     <path class="fil2" d="M7137 800c61,0 104,17 131,70 26,50 32,109 32,175l-338 0c0,-28 7,-68 13,-92 18,-73 78,-153 162,-153zm-327 309c0,76 3,116 28,188 20,62 59,116 109,156 83,67 231,87 334,48 51,-19 108,-60 140,-102 13,-16 44,-55 48,-74 -7,-2 -20,-11 -28,-16 -11,-7 -16,-10 -27,-16 -8,30 -51,76 -74,98 -54,54 -157,57 -226,29 -38,-15 -73,-43 -95,-77 -41,-62 -57,-146 -57,-234l490 0c0,-97 -4,-211 -77,-282 -45,-44 -85,-70 -152,-82 -84,-14 -172,-3 -244,43l-50 38c-28,22 -73,95 -88,135 -15,39 -31,97 -31,148z"/>
     <path class="fil2" d="M9329 800c67,0 108,19 136,80 31,66 24,139 30,165l-341 0c0,-106 58,-245 175,-245zm-326 309c0,118 19,212 91,300 27,33 59,57 100,77 79,39 196,47 280,15 64,-24 131,-80 166,-137 7,-12 19,-26 22,-39 -20,-11 -36,-22 -56,-32 -7,27 -47,69 -58,84 -52,69 -217,91 -310,-2 -63,-63 -84,-167 -84,-266l490 0c0,-86 0,-164 -44,-239 -28,-49 -72,-86 -125,-108 -86,-35 -191,-31 -275,11 -79,39 -136,107 -167,188 -16,42 -30,102 -30,148z"/>
     <path class="fil2" d="M13755 762l-137 0 0 73 134 0 0 522c0,94 58,157 149,157 107,0 112,-5 205,-40 20,-7 16,1 16,-53 0,-13 -11,-7 -48,-2 -52,8 -126,13 -158,-36 -17,-26 -21,-75 -21,-117l0 -431 210 0 0 -73 -213 0 0 -230 -137 0 0 230z"/>
     <path class="fil2" d="M9840 762l-138 0 0 73 135 0 0 522c0,59 28,123 82,144 58,23 155,14 210,-4l63 -23c19,-8 15,-9 15,-53 0,-13 -14,-7 -51,-1 -132,19 -177,-17 -177,-148l0 -437 210 0 0 -73 -212 0 0 -230 -137 0 0 230z"/>
     <path class="fil2" d="M16198 861c0,-20 3,-80 0,-96 -5,-22 -47,-15 -78,-11 -26,4 -61,2 -89,7l-69 4c-14,0 -12,2 -23,3l0 49c65,6 116,28 116,102l0 458c0,61 -47,70 -107,70l0 53 384 0c13,0 9,-14 9,-44 0,-11 -7,-8 -17,-9 -10,-1 -15,-2 -27,-3 -44,-3 -99,-16 -99,-73l0 -434c0,-7 22,-34 27,-40 28,-33 87,-73 134,-74 -7,15 -14,63 -1,89 32,65 158,65 158,-57 0,-33 -11,-64 -28,-82 -59,-61 -143,-29 -203,9 -14,9 -34,24 -45,36 -7,7 -14,13 -21,20 -9,10 -9,15 -21,23z"/>
     <path class="fil2" d="M8624 861l0 -102 -10 -8c-39,-1 -86,5 -125,8 -42,3 -84,5 -125,9l0 49c32,3 62,9 82,24 17,11 35,41 35,70l0 475c0,56 -65,61 -108,61l0 53 385 0c13,0 9,-14 9,-44 0,-11 -7,-8 -17,-9 -10,-1 -15,-2 -27,-3 -47,-3 -99,-17 -99,-76l0 -431c0,-16 50,-63 63,-73 23,-18 61,-38 97,-41 -12,53 -16,76 18,110 35,35 140,39 140,-78 0,-121 -116,-140 -202,-90 -44,26 -22,9 -62,43 -36,31 -35,38 -47,48 -5,4 -1,3 -7,5z"/>
     <path class="fil2" d="M14169 768l0 49c48,4 93,14 117,50 6,9 14,25 14,41l0 472c0,27 -14,49 -33,57 -13,6 -22,6 -39,7 -45,4 -36,-3 -36,56l353 0c13,0 9,-14 9,-44 0,-17 -29,-4 -73,-26 -25,-13 -36,-29 -38,-64 -3,-64 0,-137 0,-202 0,-135 0,-270 0,-405l-9 -8c-42,-1 -90,5 -131,8l-134 9z"/>
     <path class="fil2" d="M15586 1409c0,61 46,105 96,105 34,0 64,-5 85,-32 17,-21 27,-35 27,-70 0,-29 -11,-52 -28,-69 -72,-73 -180,-14 -180,66z"/>
     <path class="fil2" d="M14347 567c36,0 57,1 84,-33 25,-31 27,-39 27,-81 0,-47 -49,-90 -88,-90 -45,0 -78,17 -97,60 -31,70 24,144 74,144z"/>
    </g>
   </g>
   <g>
    <g>
     <path class="fil2" d="M6193 2328c-54,0 -94,-13 -127,-49 -58,-63 -58,-164 0,-227 46,-50 128,-64 189,-33 76,39 109,130 76,211 -22,53 -78,98 -138,98zm-217 -167l0 -12c0,-28 11,-57 20,-77 61,-121 215,-144 311,-75 82,60 105,168 65,258 -59,131 -241,154 -336,59 -10,-10 -14,-16 -22,-26 -9,-12 -12,-17 -19,-31 -18,-37 -19,-59 -19,-96z"/>
     <path class="fil2" d="M15381 2328c-54,0 -93,-13 -127,-49 -58,-63 -58,-164 0,-227 47,-50 129,-64 190,-33 34,17 61,47 75,82 18,43 18,85 0,129 -21,53 -77,98 -138,98zm-217 -179c0,53 5,94 38,139 63,82 177,106 261,65 12,-6 20,-10 31,-18 28,-20 52,-48 66,-80 26,-57 26,-119 1,-177 -19,-45 -54,-78 -96,-99 -76,-38 -181,-22 -240,38 -32,31 -61,83 -61,132z"/>
     <path class="fil2" d="M14535 2266l0 -301 -46 0 0 415c15,-10 109,-127 137,-158l139 -160 0 302 46 0 0 -416c-9,3 -20,20 -26,28l-77 89c-5,5 -4,5 -9,10l-164 191z"/>
     <path class="fil2" d="M16790 2266l0 -301 -46 0 0 415c11,-8 87,-98 102,-117l87 -101c8,-8 11,-13 18,-20l51 -60c7,-7 10,-14 18,-20l0 302 47 0 0 -416c-9,3 -6,4 -19,17l-258 301z"/>
     <path class="fil2" d="M9037 2266l0 -301 -46 0 0 415c7,-5 12,-10 17,-17l241 -281c7,-7 10,-14 18,-20l0 302 46 0 0 -416c-10,3 -42,46 -52,57l-77 91c-4,4 -6,5 -9,9 -6,8 -11,12 -17,19 -6,8 -11,13 -17,21l-86 101c-6,8 -12,13 -18,20z"/>
     <path class="fil2" d="M12472 2266l0 -301 -46 0 0 415c9,-6 29,-29 35,-38l119 -139c4,-4 6,-6 9,-10l114 -131 0 302 46 0 0 -416c-11,3 -42,46 -52,57l-207 241c-6,8 -12,13 -18,20z"/>
     <path class="fil2" d="M11197 2266l0 -301 -46 0 0 415c15,-11 123,-142 154,-177l69 -80c10,-11 46,-55 53,-61l0 302 47 0 0 -416c-9,3 -6,4 -19,17l-154 180c-12,15 -23,26 -35,41l-69 80z"/>
     <path class="fil2" d="M8185 2266l0 -301 -47 0 0 415c11,-7 61,-67 69,-78l61 -69c4,-5 4,-6 8,-11 3,-4 5,-5 8,-8l61 -72c13,-14 62,-74 70,-80l0 302 46 0 0 -416c-9,3 -6,4 -18,17 -5,6 -5,6 -8,11l-181 210c-6,8 -10,11 -16,19l-53 61z"/>
     <path class="fil2" d="M15769 2320l-65 0 0 -138c39,0 90,-5 117,16 8,5 13,11 18,20 24,43 -2,102 -70,102zm-40 -179l-25 0 0 -133c44,0 109,-6 109,68 0,48 -36,65 -84,65zm-71 223l120 0c118,0 147,-142 77,-195 -12,-9 -20,-11 -34,-17 7,-11 15,-15 23,-28 29,-47 15,-159 -96,-159l-90 0 0 399z"/>
     <path class="fil2" d="M13357 2320l-65 0 0 -138c50,0 111,-8 135,36 15,27 9,61 -14,83 -13,12 -31,19 -56,19zm-41 -179l-24 0 0 -133c44,0 108,-6 108,68 0,48 -36,65 -84,65zm-70 223l119 0c95,0 142,-97 100,-169 -16,-29 -33,-32 -57,-43 8,-11 16,-15 24,-28 21,-35 15,-103 -19,-131 -44,-37 -101,-28 -167,-28l0 399z"/>
     <path class="fil2" d="M17194 2081c0,-39 26,-73 71,-73l59 0 0 141c-43,0 -105,9 -123,-39 -3,-5 -7,-23 -7,-29zm-46 -5c0,36 6,60 29,82 14,14 45,29 71,29 -8,15 -18,30 -28,45 -11,16 -19,28 -30,44 -20,30 -39,58 -58,88l57 0c11,-22 108,-163 111,-174l24 0 0 174 47 0 0 -399c-52,0 -120,-6 -159,9 -23,10 -45,32 -54,55 -6,14 -10,29 -10,47z"/>
     <polygon class="fil2" points="16347,2364 16394,2364 16394,2171 16594,2171 16594,2364 16641,2364 16641,1965 16594,1965 16594,2128 16394,2128 16394,1965 16347,1965 "/>
     <polygon class="fil2" points="7745,2364 7791,2364 7791,2171 7992,2171 7992,2364 8038,2364 8038,1965 7992,1965 7992,2128 7791,2128 7791,1965 7745,1965 "/>
     <polygon class="fil2" points="9555,2364 9601,2364 9601,2008 9802,2008 9802,2364 9848,2364 9848,1965 9555,1965 "/>
     <polygon class="fil2" points="12849,2364 12896,2364 12896,2171 13096,2171 13096,2364 13143,2364 13143,1965 13096,1965 13096,2128 12896,2128 12896,1965 12849,1965 "/>
     <path class="fil2" d="M6586 2320l-68 0 0 -146c56,0 144,-9 144,68 0,46 -30,78 -76,78zm-114 44l120 0c122,0 151,-155 76,-209 -38,-28 -100,-25 -150,-25l0 -122 152 0 0 -43 -198 0 0 399z"/>
     <path class="fil2" d="M10565 2364l46 0 0 -169c0,-6 4,-8 8,-13l144 160c22,30 21,22 81,22l-142 -159c-7,-10 -40,-41 -48,-53l185 -187c-17,0 -33,-1 -49,0 -18,0 -13,0 -31,18 -17,17 -32,32 -49,49l-99 98 0 -165 -46 0 0 399z"/>
     <path class="fil2" d="M11577 2364l46 0 0 -169c0,-6 4,-8 8,-13l155 173c7,7 6,8 18,9 16,1 36,0 52,0 -10,-16 -124,-136 -142,-159 -8,-10 -16,-16 -24,-25 -8,-10 -18,-19 -24,-28l185 -187c-69,-2 -57,-5 -80,18 -20,20 -137,140 -148,147l0 -165 -46 0 0 399z"/>
     <path class="fil2" d="M12049 2057l5 0c1,8 26,64 31,76l32 76 -130 0c1,-14 57,-130 62,-152zm-179 307l49 0c4,-8 7,-18 11,-27 7,-16 34,-76 35,-85l171 0 22 56c9,19 15,39 24,56l49 0c-3,-12 -6,-15 -10,-26l-167 -390c-9,7 -61,130 -70,153l-69 156c-8,19 -16,36 -23,53l-22 54z"/>
     <path class="fil2" d="M10326 2057l5 0c1,10 10,28 14,37 6,14 11,25 16,39l33 76 -131 0c1,-10 40,-97 47,-113 5,-12 13,-28 16,-39zm-179 307l48 0c5,-8 8,-18 12,-27 7,-16 34,-76 35,-85l171 0 46 112 49 0c-4,-16 -37,-87 -44,-104l-133 -312c-9,7 -42,89 -48,102l-34 77c-12,29 -98,217 -102,237z"/>
     <path class="fil2" d="M16109 2057l5 0c1,8 25,64 30,76l32 76 -130 0c1,-10 10,-28 15,-37l32 -76c5,-12 13,-28 16,-39zm-179 307l48 0c5,-8 8,-18 12,-27 5,-10 7,-18 12,-28 5,-12 22,-46 23,-57l170 0 47 112 48 0c-3,-17 -122,-289 -132,-311l-44 -105c-9,7 -16,33 -24,49l-160 367z"/>
     <path class="fil2" d="M7457 2364l207 0 0 -44 -161 0 0 -152 158 0c0,-29 4,-43 -8,-43l-150 0 0 -117 161 0 0 -43 -207 0 0 399z"/>
     <path class="fil2" d="M8565 2364l206 0 0 -44 -160 0 0 -152 157 0c0,-29 4,-43 -8,-43l-149 0 0 -117 160 0 0 -43 -206 0 0 399z"/>
     <path class="fil2" d="M13560 2364l207 0 0 -44 -160 0 0 -152 157 0c0,-29 4,-43 -8,-43l-149 0 0 -117 160 0 0 -43 -207 0 0 399z"/>
     <path class="fil2" d="M13826 2155c0,45 1,59 19,101 26,62 101,116 174,116 99,0 100,-27 133,-35l0 -57c-46,30 -59,48 -127,48 -58,0 -118,-40 -140,-96 -32,-80 1,-175 74,-213 45,-23 101,-22 146,1 28,14 33,25 47,34l0 -57c-51,-34 -69,-38 -130,-38 -100,0 -196,90 -196,196z"/>
     <path class="fil2" d="M10022 2149l-27 0 0 -141c34,0 116,-5 116,57 0,27 2,52 -28,70 -16,10 -36,14 -61,14zm-73 215l46 0 0 -171c47,0 86,2 123,-26 68,-52 54,-202 -77,-202l-92 0 0 399z"/>
     <path class="fil2" d="M14985 2149l-27 0 0 -141c34,0 117,-5 117,57 0,27 1,52 -28,70 -17,10 -37,14 -62,14zm-73 215l46 0 0 -171c47,0 87,2 123,-26 51,-38 55,-125 5,-173 -39,-39 -111,-29 -174,-29l0 399z"/>
     <path class="fil2" d="M7091 2062c0,41 4,80 24,102 44,50 129,31 193,31l0 169 46 0 0 -399 -46 0 0 187c-95,0 -171,29 -171,-81l0 -106 -46 0 0 97z"/>
     <path class="fil2" d="M6868 2252l-48 112 48 0c26,-49 85,-186 114,-248l68 -151 -51 0c-1,11 -7,19 -12,29l-38 87c-9,19 -16,36 -25,56l-31 58 -89 -171c-5,-8 -29,-52 -31,-59l-57 0 77 143c7,12 12,23 19,35 7,12 12,24 18,36 5,10 38,67 38,73z"/>
     <polygon class="fil2" points="10855,2008 10950,2008 10950,2364 10996,2364 10996,2008 11094,2008 11094,1965 10855,1965 "/>
     <polygon class="fil2" points="14190,2008 14285,2008 14285,2364 14331,2364 14331,2008 14429,2008 14429,1965 14190,1965 "/>
    </g>
   </g>
  </g>
 </g>
</svg>
